<?xml version="1.0" encoding="UTF-8"?>
<svg xmlns="http://www.w3.org/2000/svg" xmlns:xlink="http://www.w3.org/1999/xlink" width="2.4pt" height="1.4pt" viewBox="0 0 2.4 1.4" version="1.1">
<g id="surface1">
<path style="fill:none;stroke-width:0.5;stroke-linecap:butt;stroke-linejoin:miter;stroke:rgb(0%,0%,0%);stroke-opacity:1;stroke-miterlimit:10;" d="M 2.398438 0.199219 C 2.398438 0.0898438 2.308594 0 2.199219 0 C 2.089844 0 2 0.0898438 2 0.199219 C 2 0.308594 2.089844 0.398438 2.199219 0.398438 C 2.308594 0.398438 2.398438 0.308594 2.398438 0.199219 Z M 2.398438 0.199219 "/>
<path style="fill:none;stroke-width:0.5;stroke-linecap:butt;stroke-linejoin:miter;stroke:rgb(0%,0%,0%);stroke-opacity:1;stroke-miterlimit:10;" d="M 1.398438 0.199219 C 1.398438 0.0898438 1.308594 0 1.199219 0 C 1.089844 0 1 0.0898438 1 0.199219 C 1 0.308594 1.089844 0.398438 1.199219 0.398438 C 1.308594 0.398438 1.398438 0.308594 1.398438 0.199219 Z M 1.398438 0.199219 "/>
<path style="fill:none;stroke-width:0.5;stroke-linecap:butt;stroke-linejoin:miter;stroke:rgb(0%,0%,0%);stroke-opacity:1;stroke-miterlimit:10;" d="M 0.398438 0.199219 C 0.398438 0.0898438 0.308594 0 0.199219 0 C 0.0898438 0 0 0.0898438 0 0.199219 C 0 0.308594 0.0898438 0.398438 0.199219 0.398438 C 0.308594 0.398438 0.398438 0.308594 0.398438 0.199219 Z M 0.398438 0.199219 "/>
<path style="fill:none;stroke-width:0.5;stroke-linecap:butt;stroke-linejoin:miter;stroke:rgb(0%,0%,0%);stroke-opacity:1;stroke-miterlimit:10;" d="M 2.398438 1.199219 C 2.398438 1.089844 2.308594 1 2.199219 1 C 2.089844 1 2 1.089844 2 1.199219 C 2 1.308594 2.089844 1.398438 2.199219 1.398438 C 2.308594 1.398438 2.398438 1.308594 2.398438 1.199219 Z M 2.398438 1.199219 "/>
<path style="fill:none;stroke-width:0.5;stroke-linecap:butt;stroke-linejoin:miter;stroke:rgb(0%,0%,0%);stroke-opacity:1;stroke-miterlimit:10;" d="M 1.398438 1.199219 C 1.398438 1.089844 1.308594 1 1.199219 1 C 1.089844 1 1 1.089844 1 1.199219 C 1 1.308594 1.089844 1.398438 1.199219 1.398438 C 1.308594 1.398438 1.398438 1.308594 1.398438 1.199219 Z M 1.398438 1.199219 "/>
<path style="fill:none;stroke-width:0.5;stroke-linecap:butt;stroke-linejoin:miter;stroke:rgb(0%,0%,0%);stroke-opacity:1;stroke-miterlimit:10;" d="M 0.398438 1.199219 C 0.398438 1.089844 0.308594 1 0.199219 1 C 0.0898438 1 0 1.089844 0 1.199219 C 0 1.308594 0.0898438 1.398438 0.199219 1.398438 C 0.308594 1.398438 0.398438 1.308594 0.398438 1.199219 Z M 0.398438 1.199219 "/>
</g>
</svg>
